<svg xmlns="http://www.w3.org/2000/svg" width="123" height="38" fill-rule="evenodd"><path fill="#000" d="M0 3.995A3.996 3.996 0 0 1 4.005 0h115A3.996 3.996 0 0 1 123 3.995v30A3.996 3.996 0 0 1 118.995 38h-115A3.996 3.996 0 0 1 0 34.005v-30z"/><g fill="#fff"><path d="M38.83 6.517h2.187c1.818 0 2.89 1.116 2.89 3.04 0 1.93-1.07 3.063-2.9 3.063H38.83V6.517zm.948.816V11.8h1.15c1.294 0 2.013-.8 2.013-2.233s-.72-2.233-2.013-2.233h-1.15zm7.502 5.342c-1.328 0-2.174-.905-2.174-2.352s.85-2.356 2.174-2.356 2.17.9 2.17 2.356-.842 2.352-2.17 2.352zm0-.762c.778 0 1.24-.588 1.24-1.6s-.462-1.594-1.24-1.594-1.243.596-1.243 1.594.465 1.6 1.243 1.6zm9.52-3.886l-1.265 4.593h-.947l-.977-3.46h-.02l-.97 3.46h-.943L50.4 8.027h.914l.854 3.637h.017l.973-3.637h.88l.977 3.637h.017l.854-3.637h.905zm1.18 4.593V8.027h.875V8.8h.017c.28-.54.74-.824 1.45-.824 1.016 0 1.595.643 1.595 1.7v2.944H61V9.85c0-.698-.32-1.088-.994-1.088-.693 0-1.108.483-1.108 1.206v2.652h-.918zm5.493 0V6.242h.918v6.378h-.918zm4.46.055c-1.328 0-2.173-.905-2.173-2.352s.85-2.356 2.173-2.356 2.17.9 2.17 2.356-.84 2.352-2.17 2.352zm0-.762c.78 0 1.24-.588 1.24-1.6s-.46-1.594-1.24-1.594-1.243.596-1.243 1.594.465 1.6 1.243 1.6zm5.1.022c.682 0 1.198-.436 1.198-1.04v-.36l-1.117.076c-.626.038-.952.27-.952.676 0 .394.343.648.872.648zm-.245.73c-.917 0-1.552-.54-1.552-1.362 0-.803.622-1.268 1.755-1.34l1.24-.072v-.356c0-.524-.35-.812-.965-.812-.5 0-.863.258-.943.656h-.86c.026-.812.796-1.413 1.828-1.413 1.12 0 1.844.592 1.844 1.502v3.15h-.876v-.765h-.02c-.254.5-.825.812-1.45.812zm5.6 0c-1.15 0-1.938-.926-1.938-2.347 0-1.413.787-2.34 1.93-2.34.66 0 1.183.3 1.446.808h.02V6.242h.914v6.378h-.888v-.78h-.017c-.27.52-.795.825-1.467.825zm.232-3.908c-.74 0-1.23.618-1.23 1.565s.486 1.565 1.23 1.565c.736 0 1.23-.626 1.23-1.565s-.495-1.565-1.23-1.565zm8.276 3.917c-1.328 0-2.174-.905-2.174-2.352s.85-2.356 2.174-2.356 2.17.9 2.17 2.356-.842 2.352-2.17 2.352zm0-.762c.778 0 1.24-.588 1.24-1.6s-.462-1.594-1.24-1.594-1.243.596-1.243 1.594.465 1.6 1.243 1.6zm3.506.707V8.027h.875V8.8h.017c.28-.54.74-.824 1.45-.824 1.016 0 1.595.643 1.595 1.7v2.944h-.917V9.85c0-.698-.322-1.088-.994-1.088-.694 0-1.108.483-1.108 1.206v2.652h-.918zm8.326-5.625h.914v1.032h.88v.723h-.88v2.567c0 .398.178.584.563.584a3.07 3.07 0 0 0 .312-.021v.723a2.588 2.588 0 0 1-.515.046c-.918 0-1.274-.35-1.274-1.24V8.75h-.634v-.723h.634V6.995zm3.206 5.625V6.242h.9V8.8h.02c.275-.54.75-.824 1.45-.824 1 0 1.616.672 1.616 1.708v2.936h-.918V9.862c0-.685-.343-1.1-1.015-1.1-.715 0-1.146.49-1.146 1.227v2.63h-.918zm7.426-3.904c-.66 0-1.138.482-1.188 1.188h2.33c-.02-.714-.474-1.188-1.142-1.188zm1.138 2.56h.875c-.13.824-.94 1.4-1.97 1.4-1.333 0-2.162-.897-2.162-2.335s.838-2.373 2.123-2.373c1.26 0 2.056.876 2.056 2.267v.322h-3.253v.055c0 .795.5 1.32 1.252 1.32.533 0 .952-.254 1.08-.656zM45.774 30l-1.08-3.19h-4.497L39.117 30h-1.904l4.26-11.8h1.98l4.26 11.8h-1.938zm-3.353-9.837l-1.758 5.176h3.565l-1.758-5.176h-.05zm11.2.867c2.265 0 3.753 1.774 3.753 4.53 0 2.747-1.48 4.53-3.712 4.53-1.276 0-2.28-.564-2.813-1.546h-.032v4.4h-1.775V21.12h1.7v1.472h.04c.5-.957 1.594-1.562 2.83-1.562zm-.45 7.555c1.44 0 2.388-1.185 2.388-3.025 0-1.832-.948-3.026-2.388-3.026-1.406 0-2.363 1.22-2.37 3.026.007 1.815.956 3.025 2.37 3.025zm10.397-7.555c2.265 0 3.753 1.774 3.753 4.53 0 2.747-1.48 4.53-3.712 4.53-1.276 0-2.28-.564-2.813-1.546h-.033v4.4H58.98V21.12h1.7v1.472h.04c.5-.957 1.594-1.562 2.83-1.562zm-.45 7.555c1.44 0 2.388-1.185 2.388-3.025 0-1.832-.948-3.026-2.388-3.026-1.406 0-2.363 1.22-2.37 3.026.007 1.815.956 3.025 2.37 3.025zm9.534-1.872h1.807c.13 1.17 1.268 1.938 2.82 1.938 1.49 0 2.56-.77 2.56-1.824 0-.915-.646-1.463-2.175-1.84l-1.53-.367c-2.166-.524-3.172-1.538-3.172-3.18 0-2.036 1.774-3.435 4.293-3.435 2.494 0 4.203 1.4 4.26 3.435h-1.783c-.106-1.178-1.08-1.9-2.502-1.9s-2.396.72-2.396 1.767c0 .834.622 1.325 2.143 1.7l1.3.32c2.42.572 3.426 1.545 3.426 3.27 0 2.208-1.758 3.6-4.554 3.6-2.617 0-4.383-1.35-4.498-3.483zm11.247-7.588h1.767v1.995h1.7v1.398h-1.7v4.963c0 .77.343 1.13 1.087 1.13.188 0 .5-.025.605-.04v1.398c-.196.05-.613.1-.997.1-1.775 0-2.462-.678-2.462-2.396v-5.143h-1.226V21.12h1.226v-1.995zm8.762 10.98c-2.568 0-4.203-1.75-4.203-4.546 0-2.788 1.643-4.555 4.203-4.555s4.194 1.758 4.194 4.555-1.627 4.546-4.194 4.546zm0-1.472c1.504 0 2.395-1.136 2.395-3.074s-.9-3.083-2.395-3.083-2.404 1.153-2.404 3.083c0 1.938.9 3.074 2.404 3.074zM98.468 30v-8.88h1.693v1.496h.033c.278-1 1.095-1.586 2.142-1.586.262 0 .482.024.62.057v1.66c-.147-.057-.458-.106-.8-.106-1.168 0-1.904.8-1.904 2.06V30h-1.775zM108 22.453c-1.276 0-2.2.932-2.298 2.297h4.506c-.04-1.382-.916-2.297-2.208-2.297zm2.2 4.947h1.692c-.253 1.594-1.815 2.706-3.8 2.706-2.576 0-4.18-1.733-4.18-4.513s1.62-4.588 4.105-4.588c2.437 0 3.974 1.693 3.974 4.383V26h-6.288v.106c0 1.537.965 2.55 2.42 2.55 1.03 0 1.84-.5 2.086-1.267z"/><path fill-rule="nonzero" d="M27.8 26.548c-1.013 1.475-2.06 2.94-3.716 2.972-1.63.03-2.15-.96-4-.96s-2.442.93-3.98 1c-1.597.06-2.812-1.593-3.834-3.06-2.087-3.003-3.68-8.5-1.538-12.194 1.06-1.84 2.962-3.003 5.023-3.034 1.57-.028 3.05 1.053 4.01 1.053s2.76-1.298 4.65-1.108c.792.033 3.014.318 4.44 2.396-.112.074-2.65 1.545-2.62 4.6.03 3.66 3.22 4.876 3.258 4.893-.03.086-.5 1.737-1.682 3.443zM20.862 7.185c.876-1.022 2.356-1.782 3.577-1.833.156 1.42-.417 2.84-1.265 3.865s-2.238 1.82-3.602 1.713c-.185-1.4.502-2.837 1.3-3.745z"/></g></svg>