<svg xmlns="http://www.w3.org/2000/svg" width="123" height="38"><defs><linearGradient id="A" x1="31.986%" x2="54.483%" y1="-6.096%" y2="92.156%"><stop offset="0%" stop-color="#006884"/><stop offset="100%" stop-color="#8ad1d0"/></linearGradient><linearGradient id="B" x1="-7.528%" x2="91.537%" y1="30.33%" y2="70.824%"><stop offset="0%" stop-color="#24bbb6"/><stop offset="100%" stop-color="#dbe692"/></linearGradient><linearGradient id="C" x1="49.94%" x2="49.94%" y1="105.755%" y2="-3.127%"><stop offset="0%" stop-color="#fcc072"/><stop offset="100%" stop-color="#f58a5b"/></linearGradient><linearGradient id="D" x1="11.149%" x2="90.437%" y1="89.321%" y2="28.033%"><stop offset="0%" stop-color="#712b8f"/><stop offset="100%" stop-color="#ea1d27"/></linearGradient></defs><g fill-rule="evenodd"><path fill="#000" fill-rule="nonzero" d="M119 38H4c-2.27 0-4-1.7-4-4V4c0-2.3 1.73-4 4-4h115c2.27 0 4 1.7 4 4v30c0 2.3-1.73 4-4 4z"/><path fill="url(#A)" d="M9.82 19.12V9.132c0-.57.478-1.047.954-1.047a1.42 1.42 0 0 1 .954.286L30.13 18.454c.382.2.572.475.572.76s-.2.57-.572.762L11.728 30.06c-.2.095-.477.285-.954.285s-.953-.476-.953-1.046V19.12z"/><path fill="url(#B)" d="M21.74 19.215L10.584 8.085h.19c.477 0 .668.095.954.286l13.54 7.42-3.528 3.424z"/><path fill="url(#C)" d="M25.172 22.544L21.74 19.12l3.527-3.52 4.863 2.663c.382.2.572.476.572.76s-.2.57-.572.76l-4.958 2.76z"/><path fill="url(#D)" d="M10.68 30.154L21.74 19.12l3.432 3.424-13.444 7.324c-.286.2-.477.286-1.05.286z"/><g fill="#fff"><path d="M68.27 32.722c-.477-.38-.858-1.046-1.05-1.427l1.527-.666c.095.2.286.476.476.76.382.38.954.76 1.526.76s1.24-.285 1.62-.76c.287-.476.478-.952.478-1.618v-.57c-1.145 1.426-3.528 1.236-4.863-.286-1.43-1.522-1.43-4.1 0-5.612 1.43-1.427 3.528-1.617 4.767-.285v-.666h1.62v7.134c0 1.807-.667 2.853-1.525 3.52-.573.475-1.43.665-2.194.665-.858-.095-1.716-.38-2.383-.95zm39.95.38l1.622-3.804-2.86-6.564h1.62l2.003 4.66 2.002-4.66h1.62l-4.385 10.367h-1.62zm-7.722-3.614c-.477-.476-.668-1.142-.668-1.808 0-.57.2-1.14.572-1.52.668-.666 1.62-.952 2.67-.952.668 0 1.24.095 1.716.38 0-1.14-.953-1.616-1.716-1.616-.667 0-1.335.38-1.62 1.046l-1.43-.57c.286-.667 1.05-1.903 2.956-1.903.953 0 1.907.285 2.48.95s.763 1.427.763 2.473v3.995h-1.62v-.665c-.19.285-.572.475-.858.665-.382.2-.86.286-1.335.286-.572-.095-1.43-.286-1.907-.76zm-50.82-3.425c0-1.902 1.43-3.995 4.004-3.995 2.48 0 4.005 2.093 4.005 3.995s-1.43 3.996-4.005 3.996-4.004-2.093-4.004-3.996zm8.58 0c0-1.902 1.43-3.995 4.005-3.995 2.48 0 4.004 2.093 4.004 3.995s-1.43 3.996-4.004 3.996c-2.48 0-4.005-2.093-4.005-3.996zm-19.356 2.093c-2.383-2.378-2.288-6.278.096-8.75 1.24-1.237 2.765-1.807 4.386-1.807 1.525 0 3.05.57 4.195 1.712l-1.144 1.236c-1.716-1.712-4.482-1.617-6.102.095a4.588 4.588 0 0 0 0 6.374c1.716 1.807 4.576 1.902 6.293.095.572-.57.762-1.332.858-2.093H43.48v-1.712h5.626c.095.38.095.856.095 1.332 0 1.426-.572 2.853-1.526 3.804-1.048 1.047-2.574 1.618-4.1 1.618-1.716-.096-3.432-.666-4.672-1.903zm40.333.666c-1.43-1.522-1.43-4.1 0-5.707 1.43-1.522 3.814-1.522 5.15 0 .476.475.763 1.14 1.05 1.807L80.188 27.1a2.034 2.034 0 0 0 1.907 1.236c.858 0 1.43-.285 2.003-1.14l1.43.95c-.2.2-.38.38-.477.57-1.62 1.618-4.386 1.618-5.816.096zm9.916 1.14V19.405h3.433c2.002 0 3.623 1.427 3.623 3.14s-1.43 3.14-3.242 3.14h-2.098v4.185H89.15v.095zm8 0V19.405h1.62v10.558h-1.62zm-21.55-.2V17.978h1.717v11.795h-1.716zm29.082-2.95c-.38-.285-.953-.38-1.526-.38-1.144 0-1.81.57-1.81 1.236s.667 1.047 1.335 1.047c.953 0 2.002-.76 2.002-1.903zm-48.82-.76c0-1.142-.762-2.38-2.193-2.38s-2.193 1.237-2.193 2.378.763 2.378 2.193 2.378c1.335 0 2.193-1.236 2.193-2.378zm8.582 0c0-1.142-.763-2.38-2.193-2.38s-2.193 1.237-2.193 2.378.763 2.378 2.193 2.378 2.193-1.236 2.193-2.378zm8.486.665c0-.095 0-.2.095-.285v-.856c0-.095-.095-.286-.095-.38-.286-.952-1.144-1.618-2.002-1.618-1.145 0-2.098 1.142-2.098 2.378 0 1.332.953 2.378 2.193 2.378.763.095 1.525-.57 1.907-1.617zm6.96-.856l3.528-1.522c-.38-.666-.953-.856-1.43-.856-1.43.095-2.288 1.617-2.098 2.378zm14.59-3.234c0-.95-.763-1.617-1.812-1.617h-1.907v3.33h2.002a1.71 1.71 0 0 0 1.717-1.713z"/><path d="M109.46 31.2h-.095v-.095.095zm0 0c0-.095 0-.095 0 0 0-.095 0-.095 0 0zm0 0v-.095.095zm0-.095v.095-.095zm0 .095v-.095.095zm0 0c0-.095 0-.095 0 0zm0 0c0-.095 0-.095 0 0zm.096 0c0-.095 0-.095 0 0 0-.095 0-.095 0 0 0-.095 0-.095 0 0zm0 0c0-.095 0-.095 0 0zm0-.095v.095zm0 .095v-.095.095zm0 0c0-.095 0-.095 0 0 0-.095 0-.095 0 0zm0-.095c0 .095 0 .095 0 0 0 .095 0 .095 0 0zm0 .095c0-.095 0-.095 0 0 0-.095 0-.095 0 0 0-.095 0-.095 0 0 0-.095 0-.095 0 0zm.095 0c0-.095 0-.095 0 0-.095-.095-.095-.095 0 0-.095 0-.095 0 0 0zm0-.095c0 .095 0 .095 0 0 0 .095-.095.095 0 0-.095 0 0 0 0 0zm0 .095v-.095.095-.095.095-.095zm0 0c0-.095 0-.095 0 0 0-.095 0-.095 0 0 0-.095 0-.095 0 0 0-.095 0-.095 0 0 0-.095 0-.095 0 0 0-.095 0-.095 0 0 0-.095 0-.095 0 0 0-.095 0-.095 0 0zm.096-.095h-.096.096v.095-.095zm0 .095v-.095.095zm0 0c0-.095 0-.095 0 0 0-.095 0-.095 0 0z"/><path fill-rule="nonzero" d="M37.567 10.083c0-1.712 1.24-2.76 2.766-2.76 1.048 0 1.716.476 2.193 1.142l-.763.475c-.286-.38-.763-.665-1.43-.665-1.05 0-1.812.76-1.812 1.902s.763 1.902 1.812 1.902a1.89 1.89 0 0 0 1.24-.475v-.856h-1.526v-.856h2.574V11.9c-.477.57-1.24.95-2.193.95-1.62 0-2.86-1.14-2.86-2.758zm6.198 2.663V7.42h3.623v.856h-2.765v1.33h2.67v.856h-2.67v1.522h2.765v.856zm6.293 0v-4.47h-1.62V7.42h4.196v.856h-1.62v4.47zm5.816 0V7.42h.954v5.326h-.954zm3.528 0v-4.47h-1.62V7.42h4.196v.856h-1.62v4.47zm5.626-2.663c0-1.617 1.144-2.76 2.765-2.76s2.765 1.142 2.765 2.76-1.144 2.758-2.765 2.758a2.7 2.7 0 0 1-2.765-2.758zm4.48 0c0-1.142-.667-1.903-1.81-1.903-1.05 0-1.812.857-1.812 1.903 0 1.14.667 1.902 1.812 1.902s1.81-.856 1.81-1.902zm5.817 2.663L72.56 8.94v3.805h-.953V7.42h.953l2.766 3.71V7.42h.953v5.326z"/></g></g></svg>