<?xml version="1.0" encoding="UTF-8" standalone="no"?>
<svg
   xmlns:dc="http://purl.org/dc/elements/1.1/"
   xmlns:cc="http://creativecommons.org/ns#"
   xmlns:rdf="http://www.w3.org/1999/02/22-rdf-syntax-ns#"
   xmlns:svg="http://www.w3.org/2000/svg"
   xmlns="http://www.w3.org/2000/svg"
   width="32.080624mm"
   height="10.381759mm"
   viewBox="0 0 32.080624 10.381759"
   version="1.1"
   id="SVGRoot">
  <defs
     id="defs409" />
  <metadata
     id="metadata412">
    <rdf:RDF>
      <cc:Work
         rdf:about="">
        <dc:format>image/svg+xml</dc:format>
        <dc:type
           rdf:resource="http://purl.org/dc/dcmitype/StillImage" />
        <dc:title></dc:title>
      </cc:Work>
    </rdf:RDF>
  </metadata>
  <g
     transform="translate(-20.451322,-19.518215)"
     id="layer1">
    <g
       style="fill:#2196f3;fill-opacity:1"
       id="g482">
      <path
         id="path439"
         style="font-size:10.58329999999999949px;line-height:1.25;font-family:Righteous;-inkscape-font-specification:Righteous;stroke-width:0.264583;fill:#2196f3;fill-opacity:1"
         d="m 24.239192,20.742942 q 0,0.19637 -0.07751,0.366902 -0.07235,0.170532 -0.201538,0.299722 -0.124023,0.124023 -0.299722,0.201538 -0.170532,0.07235 -0.361734,0.07235 -0.201537,0 -0.377237,-0.07235 -0.170531,-0.07752 -0.299722,-0.201538 -0.129191,-0.12919 -0.206705,-0.299722 -0.07235,-0.170532 -0.07235,-0.366902 0,-0.191202 0.07235,-0.361734 0.07751,-0.175699 0.206705,-0.299722 0.129191,-0.129191 0.299722,-0.201537 0.1757,-0.07751 0.377237,-0.07751 0.191202,0 0.361734,0.07751 0.175699,0.07235 0.299722,0.201537 0.129191,0.124023 0.201538,0.299722 0.07751,0.170532 0.07751,0.361734 z m -3.78787,9.1467 v -1.421098 l 0.780311,0.01034 q 0.28422,0 0.527098,-0.118856 0.242879,-0.113688 0.418578,-0.310057 0.180867,-0.191203 0.28422,-0.444416 0.103352,-0.253214 0.103352,-0.532266 v -4.826563 h 1.441768 v 4.826563 h -0.01033 q -0.0052,0.387572 -0.10852,0.749306 -0.09819,0.361734 -0.28422,0.671791 -0.186034,0.315226 -0.444416,0.568439 -0.258381,0.258382 -0.573606,0.439249 -0.310058,0.186034 -0.666624,0.284219 -0.361734,0.103353 -0.749306,0.103353 z" />
      <path
         id="path441"
         style="font-size:10.58329999999999949px;line-height:1.25;font-family:Righteous;-inkscape-font-specification:Righteous;stroke-width:0.264583;fill:#2196f3;fill-opacity:1"
         d="m 30.424842,24.964893 q 0,0.620116 -0.222208,1.157549 -0.222208,0.532265 -0.604613,0.925005 -0.382404,0.387572 -0.899167,0.614948 -0.511595,0.222208 -1.100704,0.222208 -0.583942,0 -1.100705,-0.222208 -0.511595,-0.227376 -0.899167,-0.614948 -0.382404,-0.39274 -0.604612,-0.925005 -0.222208,-0.537433 -0.222208,-1.157549 0,-0.63045 0.222208,-1.167883 0.222208,-0.537433 0.604612,-0.925005 0.387572,-0.39274 0.899167,-0.614948 0.516763,-0.222208 1.100705,-0.222208 0.589109,0 1.100704,0.211873 0.516763,0.206705 0.899167,0.594277 0.382405,0.382404 0.604613,0.925005 0.222208,0.537433 0.222208,1.198889 z m -1.421098,0 q 0,-0.341063 -0.113688,-0.614947 -0.10852,-0.279052 -0.299722,-0.475422 -0.191202,-0.201537 -0.449583,-0.30489 -0.253214,-0.10852 -0.542601,-0.10852 -0.289387,0 -0.547769,0.10852 -0.253213,0.103353 -0.444416,0.30489 -0.186034,0.19637 -0.294554,0.475422 -0.10852,0.273884 -0.10852,0.614947 0,0.320393 0.10852,0.594277 0.10852,0.273885 0.294554,0.475422 0.191203,0.201538 0.444416,0.320393 0.258382,0.113688 0.547769,0.113688 0.289387,0 0.542601,-0.10852 0.258381,-0.108521 0.449583,-0.30489 0.191202,-0.19637 0.299722,-0.475422 0.113688,-0.279052 0.113688,-0.614948 z" />
      <path
         id="path443"
         style="font-size:10.58329999999999949px;line-height:1.25;font-family:Righteous;-inkscape-font-specification:Righteous;stroke-width:0.264583;fill:#2196f3;fill-opacity:1"
         d="m 36.755184,24.964893 q 0,0.651121 -0.222208,1.188555 -0.222208,0.537433 -0.604612,0.925005 -0.382405,0.382404 -0.899167,0.594277 -0.511595,0.211873 -1.100705,0.211873 -0.583942,0 -1.100704,-0.217041 Q 32.316192,27.450522 31.92862,27.06295 31.546216,26.675378 31.324008,26.143112 31.1018,25.605679 31.1018,24.964893 v -4.91958 h 1.41593 v 2.583813 q 0.113688,-0.144693 0.273884,-0.258381 0.165364,-0.113688 0.351399,-0.186035 0.191202,-0.07235 0.392739,-0.10852 0.201538,-0.04134 0.39274,-0.04134 0.58911,0 1.100705,0.222208 0.516762,0.21704 0.899167,0.60978 0.382404,0.39274 0.604612,0.930173 0.222208,0.532265 0.222208,1.167882 z m -1.421097,0 q 0,-0.320392 -0.113688,-0.594277 -0.10852,-0.279052 -0.299723,-0.480589 -0.191202,-0.201537 -0.449583,-0.315225 -0.253214,-0.113688 -0.542601,-0.113688 -0.289387,0 -0.547768,0.129191 -0.253214,0.124023 -0.444416,0.335895 -0.191202,0.206705 -0.299723,0.48059 -0.10852,0.268716 -0.10852,0.558103 0,0.320393 0.10852,0.594277 0.108521,0.273885 0.299723,0.475422 0.191202,0.201538 0.444416,0.320393 0.258381,0.113688 0.547768,0.113688 0.289387,0 0.542601,-0.113688 0.258381,-0.118855 0.449583,-0.320393 0.191203,-0.201537 0.299723,-0.475422 0.113688,-0.273884 0.113688,-0.594277 z" />
      <path
         id="path445"
         style="font-size:10.58329999999999949px;line-height:1.25;font-family:Righteous;-inkscape-font-specification:Righteous;stroke-width:0.264583;fill:#2196f3;fill-opacity:1"
         d="m 38.873912,29.889642 v -1.421098 l 0.785479,0.01034 q 0.206705,0 0.397907,-0.06718 0.191203,-0.06718 0.351399,-0.186034 0.165364,-0.118856 0.289387,-0.28422 0.124023,-0.160196 0.201538,-0.351398 -0.232544,0.09819 -0.475422,0.19637 -0.237711,0.09818 -0.480589,0.09818 -0.511595,0 -0.961179,-0.180867 -0.449583,-0.180867 -0.790647,-0.511595 -0.335896,-0.335896 -0.532265,-0.811318 -0.191203,-0.480589 -0.191203,-1.074866 v -3.059235 h 1.405595 v 3.059235 q 0,0.294555 0.08268,0.516762 0.08785,0.217041 0.232543,0.366902 0.144694,0.144694 0.335896,0.21704 0.19637,0.07235 0.418578,0.07235 0.21704,0 0.408242,-0.09819 0.19637,-0.103352 0.341064,-0.268716 0.144693,-0.165365 0.227375,-0.37207 0.08268,-0.211872 0.08268,-0.43408 v -3.059235 h 1.421098 v 4.836898 q -0.0052,0.583942 -0.227376,1.095537 -0.222208,0.511595 -0.60978,0.894 -0.382404,0.382404 -0.893999,0.604612 -0.511595,0.222208 -1.095537,0.222208 z" />
      <path
         id="path447"
         style="font-size:10.58329999999999949px;line-height:1.25;font-family:Righteous;-inkscape-font-specification:Righteous;stroke-width:0.264583;fill:#2196f3;fill-opacity:1"
         d="M 45.286937,27.78125 H 43.876175 V 23.652316 H 43.18888 v -1.405594 h 0.687295 v -0.263549 q 0,-0.511595 0.191202,-0.961179 0.19637,-0.449583 0.532265,-0.780311 0.341064,-0.335896 0.790647,-0.527098 0.449584,-0.19637 0.961179,-0.19637 h 1.059363 v 1.405594 h -1.059363 q -0.227376,0 -0.423746,0.08268 -0.191202,0.07751 -0.335895,0.222208 -0.139526,0.139526 -0.222208,0.335896 -0.08268,0.191202 -0.08268,0.418578 v 0.263549 h 1.731155 v 1.405594 h -1.731155 z" />
      <path
         id="path449"
         style="font-size:10.58329999999999949px;line-height:1.25;font-family:Righteous;-inkscape-font-specification:Righteous;stroke-width:0.264583;fill:#2196f3;fill-opacity:1"
         d="m 48.98179,29.889642 v -1.421098 l 0.785479,0.01034 q 0.206705,0 0.397907,-0.06718 0.191202,-0.06718 0.351399,-0.186034 0.165364,-0.118856 0.289387,-0.28422 0.124023,-0.160196 0.201537,-0.351398 -0.232543,0.09819 -0.475421,0.19637 -0.237711,0.09818 -0.48059,0.09818 -0.511595,0 -0.961178,-0.180867 -0.449584,-0.180867 -0.790647,-0.511595 -0.335896,-0.335896 -0.532266,-0.811318 -0.191202,-0.480589 -0.191202,-1.074866 v -3.059235 h 1.405595 v 3.059235 q 0,0.294555 0.08268,0.516762 0.08785,0.217041 0.232543,0.366902 0.144693,0.144694 0.335896,0.21704 0.196369,0.07235 0.418577,0.07235 0.217041,0 0.408243,-0.09819 0.19637,-0.103352 0.341063,-0.268716 0.144694,-0.165365 0.227376,-0.37207 0.08268,-0.211872 0.08268,-0.43408 v -3.059235 h 1.421097 v 4.836898 q -0.0052,0.583942 -0.227375,1.095537 -0.222208,0.511595 -0.60978,0.894 -0.382405,0.382404 -0.894,0.604612 -0.511595,0.222208 -1.095537,0.222208 z" />
    </g>
  </g>
</svg>
